<svg version="1.1" id="Layer_1" xmlns="http://www.w3.org/2000/svg"
	xmlns:xlink="http://www.w3.org/1999/xlink" x="0px" y="0px"
	width="100%" viewBox="0 0 2000 854" enable-background="new 0 0 2000 854" xml:space="preserve">
<path fill="none" opacity="1.000000" stroke="none" 
	d="
M419.000000,855.000000 
	C400.637299,855.000000 382.274597,855.000000 363.292786,854.589722 
	C363.115753,851.970459 363.943573,849.761536 363.944763,847.552307 
	C364.007263,730.241272 364.000000,612.930237 364.000000,495.619232 
	C364.000000,493.853851 364.000000,492.088470 364.000000,490.000000 
	C242.567123,490.000000 121.783562,490.000000 1.000000,490.000000 
	C1.000000,473.970642 1.000000,457.941254 1.336061,441.455139 
	C2.114522,440.943542 2.556921,440.888672 3.460022,440.902893 
	C123.292084,440.981201 242.663437,440.990814 362.034790,440.992737 
	C363.030182,440.992737 364.025574,440.888885 365.268707,440.851562 
	C365.879700,440.683990 365.985413,440.401855 365.902588,439.561188 
	C365.980988,321.061676 365.990753,203.024170 365.992767,84.986687 
	C365.992767,83.991333 365.888824,82.995987 365.900085,81.624573 
	C365.854218,80.207542 365.741638,79.166573 365.500336,76.934784 
	C363.455658,79.160370 362.170715,80.559013 360.586243,82.091263 
	C313.264954,129.239288 266.242371,176.252838 219.228897,223.275558 
	C218.415359,224.089264 217.712219,225.013336 216.650085,226.028473 
	C214.523651,227.766571 212.704712,229.362137 210.586212,231.091278 
	C161.264893,280.239349 112.242271,329.252960 63.228748,378.275696 
	C62.415260,379.089325 61.712181,380.013336 60.650101,381.028412 
	C58.523666,382.766510 56.704720,384.362091 54.586220,386.091248 
	C37.178844,403.443512 20.071024,420.662201 2.639094,437.934753 
	C1.876657,437.992371 1.438329,437.996185 1.000000,438.000000 
	C1.000000,292.345703 1.000000,146.691376 1.000000,1.018533 
	C667.597778,1.018533 1334.195557,1.018533 2000.896729,1.018533 
	C2000.896729,285.573608 2000.896729,570.147217 2000.896729,855.000000 
	C1474.637329,855.000000 948.274597,855.000000 421.197815,854.703125 
	C421.825745,852.932983 423.106659,851.398254 424.518616,849.995361 
	C473.403809,801.423889 522.346558,752.910217 571.182068,704.288818 
	C606.357971,669.267090 641.341553,634.052185 676.514099,599.027100 
	C692.886963,582.722900 709.602966,566.763367 725.985779,550.468994 
	C745.106018,531.451904 764.032227,512.239746 783.283569,493.008972 
	C783.348389,492.560150 783.172241,492.214539 782.724121,491.532593 
	C780.957397,491.130829 779.462708,491.008270 777.967957,491.008148 
	C660.004089,490.999298 542.040222,490.999084 424.076355,491.009521 
	C422.476074,491.009674 420.875763,491.153015 419.000000,491.242706 
	C419.000000,612.786255 419.000000,733.893127 419.000000,855.000000 
M1560.000000,299.547913 
	C1560.767700,277.676910 1549.724854,266.429840 1533.236938,260.439087 
	C1533.570923,260.055420 1533.827759,259.467316 1534.230591,259.339569 
	C1552.243896,253.627197 1560.445312,239.145996 1560.158447,221.301834 
	C1559.612183,187.318268 1559.981934,153.319641 1560.011475,119.327309 
	C1560.019897,109.593704 1556.323486,101.290733 1549.792725,94.407463 
	C1539.173706,83.215240 1525.415771,78.198853 1510.466553,78.144890 
	C1426.986450,77.843521 1343.504517,77.998985 1260.023315,78.009521 
	C1258.751953,78.009682 1257.480591,78.152588 1256.255981,78.226067 
	C1256.255981,199.613617 1256.255981,320.666199 1256.255981,442.000000 
	C1258.311890,442.000000 1260.114868,442.000000 1261.917969,442.000000 
	C1345.399170,442.000000 1428.880493,442.011230 1512.361694,441.957764 
	C1515.598267,441.955688 1518.894531,441.619354 1522.061157,440.954010 
	C1543.912354,436.362793 1561.226440,420.373322 1560.273193,394.503235 
	C1559.120483,363.219421 1560.000000,331.860718 1560.000000,299.547913 
M1951.044800,252.463989 
	C1942.601562,236.366241 1928.150146,228.597534 1911.109985,228.291595 
	C1864.126343,227.448074 1817.117676,228.000000 1770.118896,228.000000 
	C1760.285767,228.000000 1750.436523,228.350250 1740.624512,227.894043 
	C1732.098633,227.497620 1726.790527,225.380051 1726.929932,214.375412 
	C1727.178955,194.712418 1726.991699,175.043991 1727.004272,155.377838 
	C1727.009033,147.965424 1730.959961,144.010834 1738.364258,144.004318 
	C1754.363770,143.990250 1770.363403,144.000000 1786.362915,144.000000 
	C1813.695557,144.000000 1841.028198,143.996689 1868.360840,144.002213 
	C1875.684937,144.003693 1878.999756,147.372650 1878.999878,154.774078 
	C1879.000244,164.059525 1879.000000,173.344955 1879.000000,182.787430 
	C1904.489258,182.787430 1929.560547,182.787430 1954.721802,182.787430 
	C1954.835571,182.131729 1954.986328,181.667755 1954.986694,181.203674 
	C1954.999268,159.204254 1955.279419,137.198471 1954.781860,115.210335 
	C1954.671997,110.348724 1952.747192,104.927544 1950.041382,100.831993 
	C1939.730591,85.225082 1924.097168,78.256500 1906.053589,78.154198 
	C1838.224243,77.769608 1770.391235,77.955284 1702.559814,78.046356 
	C1691.913696,78.060654 1681.864136,80.600746 1672.411255,85.884697 
	C1659.166382,93.288261 1651.275024,104.273209 1651.140381,119.350357 
	C1650.745728,163.512344 1650.900391,207.680542 1651.078979,251.845337 
	C1651.117432,261.340851 1654.644287,269.868256 1661.320312,276.771790 
	C1672.177734,287.999420 1685.789429,292.855255 1701.143555,292.960663 
	C1723.475342,293.113983 1745.808838,293.000000 1768.141602,293.000000 
	C1801.474121,293.000000 1834.806519,292.986389 1868.139038,293.010712 
	C1875.362061,293.015991 1878.997192,296.678741 1878.998657,303.780090 
	C1879.002930,324.279572 1879.000244,344.779022 1879.000000,365.278503 
	C1878.999878,373.654968 1875.684204,376.982544 1867.066406,376.987915 
	C1824.400879,377.014404 1781.735229,377.008362 1739.069702,376.992188 
	C1731.448853,376.989288 1727.002197,372.468872 1727.000366,364.852051 
	C1726.998291,355.932892 1727.000000,347.013763 1727.000000,338.344757 
	C1701.244263,338.344757 1676.171387,338.344757 1651.000000,338.344757 
	C1651.000000,359.682465 1650.930176,380.676025 1651.074829,401.668121 
	C1651.096802,404.849365 1651.831299,408.106079 1652.721680,411.187653 
	C1657.975220,429.370789 1677.866455,441.718872 1695.894165,441.827118 
	C1766.389771,442.250305 1836.889404,441.989319 1907.387573,442.011292 
	C1918.211182,442.014648 1928.122681,438.952362 1937.019531,432.953522 
	C1948.807617,425.005005 1955.248413,414.363647 1955.126953,399.488098 
	C1954.770386,355.825470 1955.113647,312.157379 1954.848267,268.493500 
	C1954.817017,263.338593 1952.707642,258.196289 1951.044800,252.463989 
M1091.542603,388.031403 
	C1098.371216,405.995117 1105.199829,423.958862 1111.998413,441.843689 
	C1139.184448,441.843689 1165.988281,441.843689 1193.602173,441.843689 
	C1144.895874,320.308258 1096.355591,199.186798 1047.789185,78.000000 
	C1024.027954,78.000000 1000.536743,78.161774 977.051819,77.849869 
	C972.857727,77.794167 971.277222,79.591812 970.039612,82.779030 
	C967.141418,90.242958 964.344849,97.747528 961.356079,105.174858 
	C950.950073,131.034119 940.427979,156.846725 930.047363,182.716125 
	C917.403015,214.226974 904.843628,245.771973 892.272888,277.312286 
	C882.379395,302.134979 872.560120,326.987244 862.641541,351.799866 
	C853.724060,374.108093 844.711548,396.378357 835.750671,418.669281 
	C832.715698,426.219086 829.710693,433.780914 826.427185,442.000000 
	C828.767395,442.000000 830.373474,442.000000 831.979492,442.000000 
	C855.642578,442.000000 879.307739,441.839203 902.966736,442.149902 
	C907.169983,442.205078 908.746399,440.382996 909.958008,437.200684 
	C920.136414,410.466339 930.298889,383.725922 940.407837,357.140533 
	C987.089111,357.140533 1033.395508,357.140533 1079.618530,357.140533 
	C1083.462891,367.326599 1087.250610,377.362305 1091.542603,388.031403 
M480.500000,442.000000 
	C581.591431,442.000000 682.682861,442.000000 783.713501,442.000000 
	C783.713501,417.360748 783.713501,393.289307 783.713501,368.824707 
	C686.358704,368.824707 589.289734,368.824707 491.826416,368.824707 
	C491.826416,271.360443 491.826416,174.291473 491.826416,77.287827 
	C467.357971,77.287827 443.286499,77.287827 419.285645,77.287827 
	C419.285645,198.976364 419.285645,320.377075 419.285645,442.000000 
	C439.546997,442.000000 459.523499,442.000000 480.500000,442.000000 
M1067.000000,622.476929 
	C1067.000000,608.682739 1067.000000,594.888550 1067.000000,581.094360 
	C1067.497070,580.749817 1067.994019,580.405273 1068.491089,580.060669 
	C1070.056641,581.550354 1072.235718,582.751831 1073.091675,584.574646 
	C1080.647461,600.664368 1087.968018,616.864624 1095.285278,632.872559 
	C1107.961548,632.872559 1120.231934,632.872559 1132.915649,632.872559 
	C1124.168335,615.355652 1115.553833,598.104431 1106.778809,580.531860 
	C1108.203247,579.985352 1109.507202,579.492004 1110.806030,578.985657 
	C1119.232788,575.700317 1124.814209,568.861633 1124.943726,559.365906 
	C1125.152954,544.037354 1125.289062,528.695862 1124.861084,513.376404 
	C1124.683838,507.030701 1122.145264,501.481049 1116.267212,497.517944 
	C1109.506836,492.959869 1101.944214,492.307953 1094.469482,492.142944 
	C1075.147949,491.716431 1055.810913,491.995056 1036.479980,492.010132 
	C1035.045898,492.011230 1033.611938,492.156067 1032.293945,492.227783 
	C1032.293945,539.326904 1032.293945,586.061462 1032.293945,632.703125 
	C1043.995850,632.703125 1055.401245,632.703125 1067.000000,632.703125 
	C1067.000000,629.427307 1067.000000,626.446777 1067.000000,622.476929 
M1591.502686,602.001526 
	C1587.980469,594.955566 1584.458130,587.909546 1580.774780,580.541260 
	C1582.211426,579.986145 1583.494141,579.458801 1584.798218,578.991577 
	C1592.724609,576.151550 1598.953979,568.108337 1598.982666,560.386230 
	C1599.040649,544.726135 1599.171265,529.062927 1598.918457,513.406738 
	C1598.812500,506.850952 1596.119385,501.527710 1590.294189,497.550781 
	C1583.558716,492.952454 1575.987183,492.308105 1568.516479,492.144043 
	C1549.033813,491.716156 1529.535522,491.996063 1510.043457,492.008942 
	C1508.770630,492.009766 1507.497803,492.139221 1506.257324,492.207062 
	C1506.257324,539.271729 1506.257324,585.996887 1506.257324,632.743286 
	C1517.918701,632.743286 1529.321045,632.743286 1541.062256,632.743286 
	C1541.062256,615.388733 1541.062256,598.287354 1541.062256,581.256104 
	C1544.460205,580.587646 1545.992188,581.150391 1547.506348,584.683777 
	C1554.449707,600.885315 1562.064087,616.799255 1569.409668,632.755554 
	C1581.807495,632.755554 1594.168213,632.755554 1606.784424,632.755554 
	C1601.746582,622.510986 1596.855835,612.565552 1591.502686,602.001526 
M1148.000000,619.492065 
	C1148.000000,623.927246 1148.000000,628.362427 1148.000000,632.712463 
	C1159.977783,632.712463 1171.382690,632.712463 1183.120605,632.712463 
	C1183.120605,615.319702 1183.120605,598.211670 1183.120605,580.009521 
	C1185.332642,581.192566 1187.480103,581.619263 1188.211060,582.872192 
	C1190.133911,586.167786 1191.416382,589.833923 1192.997803,593.332703 
	C1198.612549,605.755493 1204.203979,618.189392 1209.945923,630.553406 
	C1210.439575,631.616394 1211.965698,632.878723 1213.028931,632.894043 
	C1224.615479,633.061707 1236.205078,632.998962 1248.472168,632.998962 
	C1239.494019,615.007202 1230.849487,597.684021 1222.184692,580.320190 
	C1236.346436,576.180176 1240.235840,569.529297 1240.842285,557.457886 
	C1241.526978,543.828125 1241.209839,530.133118 1240.931030,516.474609 
	C1240.721924,506.239014 1236.485229,498.104309 1226.169922,494.818909 
	C1221.151001,493.220337 1215.736084,492.208313 1210.481323,492.123566 
	C1191.156494,491.812103 1171.823486,491.995117 1152.493652,492.010010 
	C1151.058594,492.011108 1149.623535,492.154327 1148.000000,492.241608 
	C1148.000000,534.552795 1148.000000,576.524048 1148.000000,619.492065 
M1673.493408,492.000000 
	C1663.248169,492.333374 1652.982788,492.378387 1642.764526,493.096375 
	C1635.335449,493.618408 1628.369751,496.379333 1624.608765,503.162170 
	C1622.436646,507.079529 1621.194824,512.028137 1621.152466,516.527893 
	C1620.862061,547.350037 1621.018555,578.176208 1620.992065,609.001099 
	C1620.978760,624.344543 1631.625488,632.855103 1645.216675,632.971924 
	C1659.711548,633.096497 1674.213623,633.243530 1688.703125,632.937805 
	C1706.452759,632.563293 1713.666016,623.143250 1713.870728,608.445923 
	C1714.297852,577.793640 1714.293701,547.126892 1713.848022,516.475098 
	C1713.681763,505.036682 1709.743164,497.009583 1695.902588,494.109772 
	C1688.923950,492.647644 1681.637085,492.656372 1673.493408,492.000000 
M1737.000000,515.500000 
	C1737.000000,548.478271 1736.883911,581.457214 1737.057251,614.434570 
	C1737.126343,627.591370 1741.456543,633.266602 1755.450562,633.067932 
	C1774.600708,632.796021 1793.758789,632.883667 1812.911499,633.040649 
	C1825.837158,633.146606 1830.145142,627.642944 1830.083008,616.177490 
	C1829.867920,576.538025 1830.000000,536.896729 1830.000000,497.256104 
	C1830.000000,495.634796 1830.000000,494.013458 1830.000000,492.199493 
	C1818.205811,492.199493 1806.806030,492.199493 1795.000000,492.199493 
	C1795.000000,493.999908 1795.000000,495.619781 1795.000000,497.239655 
	C1795.000000,532.383240 1794.940796,567.527039 1795.070435,602.670105 
	C1795.087769,607.374329 1793.513550,609.424683 1788.730103,609.044067 
	C1785.750977,608.807007 1782.737671,609.004211 1779.739624,608.999146 
	C1773.085205,608.987793 1772.003540,607.940430 1772.002563,601.415955 
	C1771.997314,566.772034 1772.000000,532.128174 1772.000000,497.484253 
	C1772.000000,495.721954 1772.000000,493.959625 1772.000000,492.289673 
	C1760.010132,492.289673 1748.609009,492.289673 1737.000000,492.289673 
	C1737.000000,499.885315 1737.000000,507.192657 1737.000000,515.500000 
M1449.000000,586.561035 
	C1449.000000,589.892212 1448.963623,593.223816 1449.006226,596.554443 
	C1449.210571,612.514893 1449.653198,610.976685 1434.131226,611.006165 
	C1429.692139,611.014587 1427.864136,609.201965 1427.903564,604.434570 
	C1428.109863,579.452881 1427.941406,554.468384 1428.021729,529.485229 
	C1428.071167,514.089111 1425.090454,514.972717 1443.199341,514.989624 
	C1447.290039,514.993408 1449.047485,517.056213 1449.013062,521.025391 
	C1448.962524,526.845154 1449.000000,532.665588 1449.000000,539.145569 
	C1460.309082,533.295349 1471.291870,527.651855 1482.211670,521.889221 
	C1483.034912,521.454712 1483.874390,520.197754 1483.924316,519.280640 
	C1484.523193,508.275269 1480.262817,496.470367 1466.682983,494.139709 
	C1458.335449,492.707001 1449.745239,492.089386 1441.270752,492.144562 
	C1430.457886,492.214996 1419.609741,492.950745 1408.857910,494.135498 
	C1401.715332,494.922546 1392.655640,504.074341 1392.801636,513.442688 
	C1393.312988,546.246216 1392.989746,579.062622 1393.028076,611.874084 
	C1393.030151,613.636963 1393.231445,615.456177 1393.693726,617.152710 
	C1396.638184,627.957581 1405.449219,632.562256 1416.010742,632.889648 
	C1430.320801,633.333191 1444.655396,632.927612 1458.978638,633.020630 
	C1472.940918,633.111206 1484.384521,624.446655 1484.062988,607.821533 
	C1483.766602,592.504150 1484.000000,577.176453 1484.000000,561.853333 
	C1484.000000,560.270752 1484.000000,558.688171 1484.000000,557.000061 
	C1474.667847,557.000061 1466.013184,556.921448 1457.363037,557.085938 
	C1456.083496,557.110291 1454.551270,558.014404 1453.609009,558.975342 
	C1450.740479,561.901123 1448.040527,565.000671 1445.393066,568.132324 
	C1442.522827,571.527405 1439.785645,575.034729 1436.345581,579.291016 
	C1441.339600,579.291016 1445.096191,579.291016 1449.000000,579.291016 
	C1449.000000,581.611328 1449.000000,583.594604 1449.000000,586.561035 
M1293.554077,493.957336 
	C1282.259399,540.138916 1270.964844,586.320557 1259.548584,632.999207 
	C1270.692139,632.999207 1281.167969,633.096619 1291.636230,632.859985 
	C1292.779297,632.834106 1294.590820,631.049988 1294.881348,629.799988 
	C1296.549194,622.623291 1297.851685,615.361694 1299.279541,608.121643 
	C1310.562622,608.121643 1321.528687,608.121643 1332.788208,608.121643 
	C1334.201660,615.597839 1335.512329,623.033569 1337.111206,630.406860 
	C1337.332886,631.428894 1338.965698,632.870544 1339.965332,632.886841 
	C1350.914551,633.065125 1361.867798,632.998657 1373.008057,632.998657 
	C1361.175293,585.698364 1349.453125,538.840088 1337.735596,492.000031 
	C1323.900024,492.000031 1310.576172,491.972351 1297.252808,492.051300 
	C1296.161255,492.057800 1295.073730,492.790344 1293.554077,493.957336 
M1877.500000,492.000000 
	C1870.070190,492.000000 1862.640259,492.000000 1855.260986,492.000000 
	C1855.260986,539.289429 1855.260986,586.009460 1855.260986,632.741333 
	C1866.591675,632.741333 1877.659668,632.741333 1889.115479,632.741333 
	C1889.115479,616.750793 1889.115479,601.014343 1889.115479,585.000000 
	C1895.302734,585.000000 1901.105469,585.115112 1906.901978,584.974426 
	C1916.812256,584.733887 1926.721558,584.401062 1936.625488,583.970520 
	C1941.499512,583.758606 1946.595825,579.457825 1946.959961,575.257324 
	C1947.442505,569.691650 1947.992798,564.100464 1947.939819,558.525635 
	C1947.766724,540.286072 1947.318726,522.049255 1947.009033,503.810822 
	C1946.920288,498.584534 1944.548706,495.073181 1939.385376,493.937683 
	C1935.462036,493.074921 1931.453003,492.136810 1927.471313,492.086365 
	C1911.149902,491.879547 1894.824097,492.000000 1877.500000,492.000000 
M931.000000,611.499878 
	C931.000000,618.598389 931.000000,625.696838 931.000000,632.715698 
	C958.975891,632.715698 986.376709,632.715698 1013.713318,632.715698 
	C1013.713318,624.689514 1013.713318,616.950562 1013.713318,608.823120 
	C997.690186,608.823120 981.950195,608.823120 966.288452,608.823120 
	C966.288452,597.019409 966.288452,585.615051 966.288452,573.818848 
	C979.314087,573.818848 992.055054,573.818848 1004.708130,573.818848 
	C1004.708130,565.678894 1004.708130,557.939819 1004.708130,549.812012 
	C991.678955,549.812012 978.937317,549.812012 966.294556,549.812012 
	C966.294556,538.673706 966.294556,527.935608 966.294556,516.807251 
	C981.659241,516.807251 996.732910,516.807251 1011.702759,516.807251 
	C1011.702759,508.334625 1011.702759,500.262390 1011.702759,492.294739 
	C984.670044,492.294739 957.935608,492.294739 931.000000,492.294739 
	C931.000000,531.892761 931.000000,571.196350 931.000000,611.499878 
M876.482788,633.000000 
	C880.253723,633.000000 884.024658,633.000000 888.163452,633.000000 
	C888.163452,594.036133 888.163452,555.634827 888.163452,516.838013 
	C897.294373,516.838013 906.038940,516.838013 914.716797,516.838013 
	C914.716797,508.363800 914.716797,500.291626 914.716797,492.281158 
	C884.698120,492.281158 854.963562,492.281158 825.283813,492.281158 
	C825.283813,500.637634 825.283813,508.709747 825.283813,517.173279 
	C834.639343,517.173279 843.716614,517.173279 853.171753,517.173279 
	C853.171753,555.972290 853.171753,594.373596 853.171753,633.000000 
	C860.871704,633.000000 868.180359,633.000000 876.482788,633.000000 
z"/>
<path fill="#ffffff" opacity="1.000000" stroke="none" 
	d="
M1.000000,490.333313 
	C121.783562,490.000000 242.567123,490.000000 364.000000,490.000000 
	C364.000000,492.088470 364.000000,493.853851 364.000000,495.619232 
	C364.000000,612.930237 364.007263,730.241272 363.944763,847.552307 
	C363.943573,849.761536 363.115753,851.970459 362.836823,854.589722 
	C362.555542,855.000000 362.111115,855.000000 361.579407,854.684509 
	C360.476868,852.891968 359.658142,851.220520 358.417694,849.966187 
	C322.479401,813.625916 286.525116,777.301331 250.519150,741.028076 
	C199.134949,689.262573 147.742249,637.505310 96.286339,585.811096 
	C65.839828,555.223572 35.271675,524.757019 4.715680,494.278717 
	C3.715041,493.280640 2.249057,492.749054 0.999996,492.000000 
	C1.000000,491.555542 1.000000,491.111115 1.000000,490.333313 
z"/>
<path fill="none" opacity="1.000000" stroke="none" 
	d="
M0.999996,492.468658 
	C2.249057,492.749054 3.715041,493.280640 4.715680,494.278717 
	C35.271675,524.757019 65.839828,555.223572 96.286339,585.811096 
	C147.742249,637.505310 199.134949,689.262573 250.519150,741.028076 
	C286.525116,777.301331 322.479401,813.625916 358.417694,849.966187 
	C359.658142,851.220520 360.476868,852.891968 361.246063,854.684509 
	C241.072632,855.000000 121.145256,855.000000 1.000000,855.000000 
	C1.000000,734.312500 1.000000,613.624939 0.999996,492.468658 
z"/>
<path fill="#ffffff" opacity="1.000000" stroke="none" 
	d="
M783.042603,493.112183 
	C764.032227,512.239746 745.106018,531.451904 725.985779,550.468994 
	C709.602966,566.763367 692.886963,582.722900 676.514099,599.027100 
	C641.341553,634.052185 606.357971,669.267090 571.182068,704.288818 
	C522.346558,752.910217 473.403809,801.423889 424.518616,849.995361 
	C423.106659,851.398254 421.825745,852.932983 420.741882,854.703125 
	C420.555542,855.000000 420.111115,855.000000 419.333313,855.000000 
	C419.000000,733.893127 419.000000,612.786255 419.000000,491.242706 
	C420.875763,491.153015 422.476074,491.009674 424.076355,491.009521 
	C542.040222,490.999084 660.004089,490.999298 777.967957,491.008148 
	C779.462708,491.008270 780.957397,491.130829 782.731934,491.844025 
	C783.022034,492.698578 783.032288,492.905365 783.042603,493.112183 
M655.230896,555.283875 
	C660.626221,549.522705 666.800720,544.427124 672.372925,537.306519 
	C602.185303,537.306519 533.776672,537.306519 465.311890,537.306519 
	C465.311890,605.640747 465.311890,673.668457 465.311890,742.372986 
	C466.572784,741.486206 467.409760,741.047729 468.061066,740.417358 
	C479.522278,729.323486 491.090302,718.335999 502.381622,707.071289 
	C548.743103,660.819153 595.016113,614.478455 641.333313,568.181946 
	C643.796631,565.719666 646.365906,563.363403 649.713989,560.982239 
	C653.616638,561.500793 655.125549,559.556396 655.230896,555.283875 
z"/>
<path fill="#ffffff" opacity="1.000000" stroke="none" 
	d="
M2.999320,440.833832 
	C2.556921,440.888672 2.114522,440.943542 1.336061,440.999207 
	C1.000000,440.250000 1.000000,439.500000 1.000000,438.375000 
	C1.438329,437.996185 1.876657,437.992371 2.650889,438.304108 
	C2.990968,439.357727 2.995144,440.095764 2.999320,440.833832 
z"/>
<path fill="#FFFFFF" opacity="1.000000" stroke="none" 
	d="
M1560.000000,300.041168 
	C1560.000000,331.860718 1559.120483,363.219421 1560.273193,394.503235 
	C1561.226440,420.373322 1543.912354,436.362793 1522.061157,440.954010 
	C1518.894531,441.619354 1515.598267,441.955688 1512.361694,441.957764 
	C1428.880493,442.011230 1345.399170,442.000000 1261.917969,442.000000 
	C1260.114868,442.000000 1258.311890,442.000000 1256.255981,442.000000 
	C1256.255981,320.666199 1256.255981,199.613617 1256.255981,78.226067 
	C1257.480591,78.152588 1258.751953,78.009682 1260.023315,78.009521 
	C1343.504517,77.998985 1426.986450,77.843521 1510.466553,78.144890 
	C1525.415771,78.198853 1539.173706,83.215240 1549.792725,94.407463 
	C1556.323486,101.290733 1560.019897,109.593704 1560.011475,119.327309 
	C1559.981934,153.319641 1559.612183,187.318268 1560.158447,221.301834 
	C1560.445312,239.145996 1552.243896,253.627197 1534.230591,259.339569 
	C1533.827759,259.467316 1533.570923,260.055420 1533.236938,260.439087 
	C1549.724854,266.429840 1560.767700,277.676910 1560.000000,300.041168 
M1455.499878,144.000000 
	C1414.425659,144.000000 1373.351318,144.000000 1332.239990,144.000000 
	C1332.239990,172.239258 1332.239990,199.963486 1332.239990,228.000000 
	C1349.098022,228.000000 1365.717773,228.000000 1382.337646,228.000000 
	C1411.483032,228.000000 1440.629517,228.151566 1469.773071,227.926712 
	C1481.718628,227.834534 1484.214966,224.874817 1484.073242,214.071899 
	C1483.815308,194.422974 1484.001221,174.768234 1483.999268,155.115921 
	C1483.998535,147.621552 1480.470581,144.046097 1472.987671,144.005798 
	C1467.491821,143.976181 1461.995728,144.000000 1455.499878,144.000000 
M1484.000000,327.500000 
	C1484.000000,320.004730 1483.532593,312.471954 1484.130859,305.024719 
	C1484.735596,297.496094 1480.458618,292.892334 1471.979858,292.923187 
	C1427.008667,293.086639 1382.036499,293.000000 1337.064697,293.000000 
	C1335.461548,293.000000 1333.858276,293.000000 1332.250854,293.000000 
	C1332.250854,321.257019 1332.250854,348.983337 1332.250854,377.000000 
	C1349.457764,377.000000 1366.415283,377.000000 1383.372803,377.000000 
	C1412.854248,377.000000 1442.335815,377.009155 1471.817261,376.993774 
	C1479.491211,376.989777 1483.997437,372.511230 1483.999268,364.977112 
	C1484.002197,352.818085 1484.000000,340.659027 1484.000000,327.500000 
z"/>
<path fill="#FFFFFF" opacity="1.000000" stroke="none" 
	d="
M1951.303101,252.756073 
	C1952.707642,258.196289 1954.817017,263.338593 1954.848267,268.493500 
	C1955.113647,312.157379 1954.770386,355.825470 1955.126953,399.488098 
	C1955.248413,414.363647 1948.807617,425.005005 1937.019531,432.953522 
	C1928.122681,438.952362 1918.211182,442.014648 1907.387573,442.011292 
	C1836.889404,441.989319 1766.389771,442.250305 1695.894165,441.827118 
	C1677.866455,441.718872 1657.975220,429.370789 1652.721680,411.187653 
	C1651.831299,408.106079 1651.096802,404.849365 1651.074829,401.668121 
	C1650.930176,380.676025 1651.000000,359.682465 1651.000000,338.344757 
	C1676.171387,338.344757 1701.244263,338.344757 1727.000000,338.344757 
	C1727.000000,347.013763 1726.998291,355.932892 1727.000366,364.852051 
	C1727.002197,372.468872 1731.448853,376.989288 1739.069702,376.992188 
	C1781.735229,377.008362 1824.400879,377.014404 1867.066406,376.987915 
	C1875.684204,376.982544 1878.999878,373.654968 1879.000000,365.278503 
	C1879.000244,344.779022 1879.002930,324.279572 1878.998657,303.780090 
	C1878.997192,296.678741 1875.362061,293.015991 1868.139038,293.010712 
	C1834.806519,292.986389 1801.474121,293.000000 1768.141602,293.000000 
	C1745.808838,293.000000 1723.475342,293.113983 1701.143555,292.960663 
	C1685.789429,292.855255 1672.177734,287.999420 1661.320312,276.771790 
	C1654.644287,269.868256 1651.117432,261.340851 1651.078979,251.845337 
	C1650.900391,207.680542 1650.745728,163.512344 1651.140381,119.350357 
	C1651.275024,104.273209 1659.166382,93.288261 1672.411255,85.884697 
	C1681.864136,80.600746 1691.913696,78.060654 1702.559814,78.046356 
	C1770.391235,77.955284 1838.224243,77.769608 1906.053589,78.154198 
	C1924.097168,78.256500 1939.730591,85.225082 1950.041382,100.831993 
	C1952.747192,104.927544 1954.671997,110.348724 1954.781860,115.210335 
	C1955.279419,137.198471 1954.999268,159.204254 1954.986694,181.203674 
	C1954.986328,181.667755 1954.835571,182.131729 1954.721802,182.787430 
	C1929.560547,182.787430 1904.489258,182.787430 1879.000000,182.787430 
	C1879.000000,173.344955 1879.000244,164.059525 1878.999878,154.774078 
	C1878.999756,147.372650 1875.684937,144.003693 1868.360840,144.002213 
	C1841.028198,143.996689 1813.695557,144.000000 1786.362915,144.000000 
	C1770.363403,144.000000 1754.363770,143.990250 1738.364258,144.004318 
	C1730.959961,144.010834 1727.009033,147.965424 1727.004272,155.377838 
	C1726.991699,175.043991 1727.178955,194.712418 1726.929932,214.375412 
	C1726.790527,225.380051 1732.098633,227.497620 1740.624512,227.894043 
	C1750.436523,228.350250 1760.285767,228.000000 1770.118896,228.000000 
	C1817.117676,228.000000 1864.126343,227.448074 1911.109985,228.291595 
	C1928.150146,228.597534 1942.601562,236.366241 1951.303101,252.756073 
z"/>
<path fill="#ffffff" opacity="1.000000" stroke="none" 
	d="
M3.460023,440.902893 
	C2.995144,440.095764 2.990968,439.357727 2.974997,438.250305 
	C20.071024,420.662201 37.178844,403.443512 55.000481,386.103516 
	C59.617645,386.501190 61.125572,384.555634 60.957584,380.885864 
	C61.712181,380.013336 62.415260,379.089325 63.228748,378.275696 
	C112.242271,329.252960 161.264893,280.239349 211.000473,231.103500 
	C215.617691,231.501251 217.125565,229.555695 216.957581,225.885925 
	C217.712219,225.013336 218.415359,224.089264 219.228897,223.275558 
	C266.242371,176.252838 313.264954,129.239288 360.998962,82.103714 
	C363.085327,81.988594 364.459351,81.994614 365.833405,82.000633 
	C365.888824,82.995987 365.992767,83.991333 365.992767,84.986687 
	C365.990753,203.024170 365.980988,321.061676 365.727814,439.652588 
	C365.266174,440.368317 365.111847,440.577484 365.020966,440.833496 
	C364.025574,440.888885 363.030182,440.992737 362.034790,440.992737 
	C242.663437,440.990814 123.292084,440.981201 3.460023,440.902893 
z"/>
<path fill="#FFFFFF" opacity="1.000000" stroke="none" 
	d="
M1091.290405,387.714722 
	C1087.250610,377.362305 1083.462891,367.326599 1079.618530,357.140533 
	C1033.395508,357.140533 987.089111,357.140533 940.407837,357.140533 
	C930.298889,383.725922 920.136414,410.466339 909.958008,437.200684 
	C908.746399,440.382996 907.169983,442.205078 902.966736,442.149902 
	C879.307739,441.839203 855.642578,442.000000 831.979492,442.000000 
	C830.373474,442.000000 828.767395,442.000000 826.427185,442.000000 
	C829.710693,433.780914 832.715698,426.219086 835.750671,418.669281 
	C844.711548,396.378357 853.724060,374.108093 862.641541,351.799866 
	C872.560120,326.987244 882.379395,302.134979 892.272888,277.312286 
	C904.843628,245.771973 917.403015,214.226974 930.047363,182.716125 
	C940.427979,156.846725 950.950073,131.034119 961.356079,105.174858 
	C964.344849,97.747528 967.141418,90.242958 970.039612,82.779030 
	C971.277222,79.591812 972.857727,77.794167 977.051819,77.849869 
	C1000.536743,78.161774 1024.027954,78.000000 1047.789185,78.000000 
	C1096.355591,199.186798 1144.895874,320.308258 1193.602173,441.843689 
	C1165.988281,441.843689 1139.184448,441.843689 1111.998413,441.843689 
	C1105.199829,423.958862 1098.371216,405.995117 1091.290405,387.714722 
M982.037659,249.600266 
	C976.638062,263.579193 971.238464,277.558105 965.775452,291.701141 
	C995.455322,291.701141 1024.641602,291.701141 1054.175293,291.701141 
	C1039.518311,253.837830 1025.007080,216.351410 1010.083496,177.799576 
	C1009.073669,180.143005 1008.487305,181.377701 1008.002197,182.651016 
	C1005.610291,188.929413 1003.277283,195.230408 1000.864319,201.500656 
	C994.772522,217.330902 988.649048,233.148956 982.037659,249.600266 
z"/>
<path fill="#FFFFFF" opacity="1.000000" stroke="none" 
	d="
M480.000000,442.000000 
	C459.523499,442.000000 439.546997,442.000000 419.285645,442.000000 
	C419.285645,320.377075 419.285645,198.976364 419.285645,77.287827 
	C443.286499,77.287827 467.357971,77.287827 491.826416,77.287827 
	C491.826416,174.291473 491.826416,271.360443 491.826416,368.824707 
	C589.289734,368.824707 686.358704,368.824707 783.713501,368.824707 
	C783.713501,393.289307 783.713501,417.360748 783.713501,442.000000 
	C682.682861,442.000000 581.591431,442.000000 480.000000,442.000000 
z"/>
<path fill="#FFFFFF" opacity="1.000000" stroke="none" 
	d="
M1067.000000,622.971619 
	C1067.000000,626.446777 1067.000000,629.427307 1067.000000,632.703125 
	C1055.401245,632.703125 1043.995850,632.703125 1032.293945,632.703125 
	C1032.293945,586.061462 1032.293945,539.326904 1032.293945,492.227783 
	C1033.611938,492.156067 1035.045898,492.011230 1036.479980,492.010132 
	C1055.810913,491.995056 1075.147949,491.716431 1094.469482,492.142944 
	C1101.944214,492.307953 1109.506836,492.959869 1116.267212,497.517944 
	C1122.145264,501.481049 1124.683838,507.030701 1124.861084,513.376404 
	C1125.289062,528.695862 1125.152954,544.037354 1124.943726,559.365906 
	C1124.814209,568.861633 1119.232788,575.700317 1110.806030,578.985657 
	C1109.507202,579.492004 1108.203247,579.985352 1106.778809,580.531860 
	C1115.553833,598.104431 1124.168335,615.355652 1132.915649,632.872559 
	C1120.231934,632.872559 1107.961548,632.872559 1095.285278,632.872559 
	C1087.968018,616.864624 1080.647461,600.664368 1073.091675,584.574646 
	C1072.235718,582.751831 1070.056641,581.550354 1068.491089,580.060669 
	C1067.994019,580.405273 1067.497070,580.749817 1067.000000,581.094360 
	C1067.000000,594.888550 1067.000000,608.682739 1067.000000,622.971619 
M1067.000000,545.489868 
	C1067.000000,549.585327 1067.000000,553.680847 1067.000000,557.999512 
	C1073.171021,557.999512 1078.800415,558.111633 1084.421997,557.952576 
	C1087.267090,557.872131 1090.035156,557.332703 1090.016724,553.395996 
	C1089.966919,542.758118 1090.142700,532.115723 1089.839111,521.486267 
	C1089.795654,519.962341 1087.680786,517.302734 1086.381592,517.211792 
	C1080.000977,516.765320 1073.571899,517.009155 1067.000000,517.009155 
	C1067.000000,526.572998 1067.000000,535.532532 1067.000000,545.489868 
z"/>
<path fill="#FFFFFF" opacity="1.000000" stroke="none" 
	d="
M1591.733887,602.310791 
	C1596.855835,612.565552 1601.746582,622.510986 1606.784424,632.755554 
	C1594.168213,632.755554 1581.807495,632.755554 1569.409668,632.755554 
	C1562.064087,616.799255 1554.449707,600.885315 1547.506348,584.683777 
	C1545.992188,581.150391 1544.460205,580.587646 1541.062256,581.256104 
	C1541.062256,598.287354 1541.062256,615.388733 1541.062256,632.743286 
	C1529.321045,632.743286 1517.918701,632.743286 1506.257324,632.743286 
	C1506.257324,585.996887 1506.257324,539.271729 1506.257324,492.207062 
	C1507.497803,492.139221 1508.770630,492.009766 1510.043457,492.008942 
	C1529.535522,491.996063 1549.033813,491.716156 1568.516479,492.144043 
	C1575.987183,492.308105 1583.558716,492.952454 1590.294189,497.550781 
	C1596.119385,501.527710 1598.812500,506.850952 1598.918457,513.406738 
	C1599.171265,529.062927 1599.040649,544.726135 1598.982666,560.386230 
	C1598.953979,568.108337 1592.724609,576.151550 1584.798218,578.991577 
	C1583.494141,579.458801 1582.211426,579.986145 1580.774780,580.541260 
	C1584.458130,587.909546 1587.980469,594.955566 1591.733887,602.310791 
M1541.000000,544.492065 
	C1541.000000,548.919434 1541.000000,553.346863 1541.000000,557.999512 
	C1547.170044,557.999512 1552.799805,558.111755 1558.421875,557.952515 
	C1561.266479,557.872009 1564.035156,557.333069 1564.016724,553.396179 
	C1563.966919,542.758179 1564.142822,532.115723 1563.839355,521.486145 
	C1563.795776,519.962280 1561.680664,517.302734 1560.381470,517.211853 
	C1554.000732,516.765381 1547.571655,517.009155 1541.000000,517.009155 
	C1541.000000,526.240906 1541.000000,534.868103 1541.000000,544.492065 
z"/>
<path fill="#FFFFFF" opacity="1.000000" stroke="none" 
	d="
M1148.000000,618.993652 
	C1148.000000,576.524048 1148.000000,534.552795 1148.000000,492.241608 
	C1149.623535,492.154327 1151.058594,492.011108 1152.493652,492.010010 
	C1171.823486,491.995117 1191.156494,491.812103 1210.481323,492.123566 
	C1215.736084,492.208313 1221.151001,493.220337 1226.169922,494.818909 
	C1236.485229,498.104309 1240.721924,506.239014 1240.931030,516.474609 
	C1241.209839,530.133118 1241.526978,543.828125 1240.842285,557.457886 
	C1240.235840,569.529297 1236.346436,576.180176 1222.184692,580.320190 
	C1230.849487,597.684021 1239.494019,615.007202 1248.472168,632.998962 
	C1236.205078,632.998962 1224.615479,633.061707 1213.028931,632.894043 
	C1211.965698,632.878723 1210.439575,631.616394 1209.945923,630.553406 
	C1204.203979,618.189392 1198.612549,605.755493 1192.997803,593.332703 
	C1191.416382,589.833923 1190.133911,586.167786 1188.211060,582.872192 
	C1187.480103,581.619263 1185.332642,581.192566 1183.120605,580.009521 
	C1183.120605,598.211670 1183.120605,615.319702 1183.120605,632.712463 
	C1171.382690,632.712463 1159.977783,632.712463 1148.000000,632.712463 
	C1148.000000,628.362427 1148.000000,623.927246 1148.000000,618.993652 
M1183.000000,522.599792 
	C1183.000000,534.352905 1183.000000,546.106018 1183.000000,557.999939 
	C1189.125366,557.999939 1194.610962,557.976196 1200.096313,558.007874 
	C1204.110962,558.031128 1206.020874,556.077209 1206.009277,552.074158 
	C1205.980957,542.243896 1206.063721,532.412842 1205.965088,522.583557 
	C1205.930054,519.088135 1204.644165,516.733582 1200.379761,516.934814 
	C1194.759888,517.199890 1189.118164,517.000000 1183.000000,517.000000 
	C1183.000000,518.722107 1183.000000,520.172424 1183.000000,522.599792 
z"/>
<path fill="#FFFFFF" opacity="1.000000" stroke="none" 
	d="
M1673.991455,492.000000 
	C1681.637085,492.656372 1688.923950,492.647644 1695.902588,494.109772 
	C1709.743164,497.009583 1713.681763,505.036682 1713.848022,516.475098 
	C1714.293701,547.126892 1714.297852,577.793640 1713.870728,608.445923 
	C1713.666016,623.143250 1706.452759,632.563293 1688.703125,632.937805 
	C1674.213623,633.243530 1659.711548,633.096497 1645.216675,632.971924 
	C1631.625488,632.855103 1620.978760,624.344543 1620.992065,609.001099 
	C1621.018555,578.176208 1620.862061,547.350037 1621.152466,516.527893 
	C1621.194824,512.028137 1622.436646,507.079529 1624.608765,503.162170 
	C1628.369751,496.379333 1635.335449,493.618408 1642.764526,493.096375 
	C1652.982788,492.378387 1663.248169,492.333374 1673.991455,492.000000 
M1678.981323,604.939819 
	C1678.987549,585.441589 1678.994385,565.943420 1678.999634,546.445190 
	C1679.001709,538.779236 1678.980835,531.113159 1679.007324,523.447266 
	C1679.022095,519.220154 1677.746216,516.536438 1672.739868,516.936035 
	C1668.765625,517.253357 1664.745239,517.033752 1660.746094,516.989807 
	C1657.417725,516.953186 1655.983398,518.589294 1655.986206,521.856506 
	C1656.010498,549.354065 1656.009033,576.851562 1655.988892,604.349121 
	C1655.986328,607.748291 1657.714600,609.070435 1660.951904,609.016785 
	C1665.117065,608.947754 1669.320435,609.320007 1673.434204,608.855164 
	C1675.287964,608.645691 1676.964966,606.871155 1678.981323,604.939819 
z"/>
<path fill="#FFFFFF" opacity="1.000000" stroke="none" 
	d="
M1737.000000,515.000000 
	C1737.000000,507.192657 1737.000000,499.885315 1737.000000,492.289673 
	C1748.609009,492.289673 1760.010132,492.289673 1772.000000,492.289673 
	C1772.000000,493.959625 1772.000000,495.721954 1772.000000,497.484253 
	C1772.000000,532.128174 1771.997314,566.772034 1772.002563,601.415955 
	C1772.003540,607.940430 1773.085205,608.987793 1779.739624,608.999146 
	C1782.737671,609.004211 1785.750977,608.807007 1788.730103,609.044067 
	C1793.513550,609.424683 1795.087769,607.374329 1795.070435,602.670105 
	C1794.940796,567.527039 1795.000000,532.383240 1795.000000,497.239655 
	C1795.000000,495.619781 1795.000000,493.999908 1795.000000,492.199493 
	C1806.806030,492.199493 1818.205811,492.199493 1830.000000,492.199493 
	C1830.000000,494.013458 1830.000000,495.634796 1830.000000,497.256104 
	C1830.000000,536.896729 1829.867920,576.538025 1830.083008,616.177490 
	C1830.145142,627.642944 1825.837158,633.146606 1812.911499,633.040649 
	C1793.758789,632.883667 1774.600708,632.796021 1755.450562,633.067932 
	C1741.456543,633.266602 1737.126343,627.591370 1737.057251,614.434570 
	C1736.883911,581.457214 1737.000000,548.478271 1737.000000,515.000000 
z"/>
<path fill="#FFFFFF" opacity="1.000000" stroke="none" 
	d="
M1449.000000,586.069458 
	C1449.000000,583.594604 1449.000000,581.611328 1449.000000,579.291016 
	C1445.096191,579.291016 1441.339600,579.291016 1436.345581,579.291016 
	C1439.785645,575.034729 1442.522827,571.527405 1445.393066,568.132324 
	C1448.040527,565.000671 1450.740479,561.901123 1453.609009,558.975342 
	C1454.551270,558.014404 1456.083496,557.110291 1457.363037,557.085938 
	C1466.013184,556.921448 1474.667847,557.000061 1484.000000,557.000061 
	C1484.000000,558.688171 1484.000000,560.270752 1484.000000,561.853333 
	C1484.000000,577.176453 1483.766602,592.504150 1484.062988,607.821533 
	C1484.384521,624.446655 1472.940918,633.111206 1458.978638,633.020630 
	C1444.655396,632.927612 1430.320801,633.333191 1416.010742,632.889648 
	C1405.449219,632.562256 1396.638184,627.957581 1393.693726,617.152710 
	C1393.231445,615.456177 1393.030151,613.636963 1393.028076,611.874084 
	C1392.989746,579.062622 1393.312988,546.246216 1392.801636,513.442688 
	C1392.655640,504.074341 1401.715332,494.922546 1408.857910,494.135498 
	C1419.609741,492.950745 1430.457886,492.214996 1441.270752,492.144562 
	C1449.745239,492.089386 1458.335449,492.707001 1466.682983,494.139709 
	C1480.262817,496.470367 1484.523193,508.275269 1483.924316,519.280640 
	C1483.874390,520.197754 1483.034912,521.454712 1482.211670,521.889221 
	C1471.291870,527.651855 1460.309082,533.295349 1449.000000,539.145569 
	C1449.000000,532.665588 1448.962524,526.845154 1449.013062,521.025391 
	C1449.047485,517.056213 1447.290039,514.993408 1443.199341,514.989624 
	C1425.090454,514.972717 1428.071167,514.089111 1428.021729,529.485229 
	C1427.941406,554.468384 1428.109863,579.452881 1427.903564,604.434570 
	C1427.864136,609.201965 1429.692139,611.014587 1434.131226,611.006165 
	C1449.653198,610.976685 1449.210571,612.514893 1449.006226,596.554443 
	C1448.963623,593.223816 1449.000000,589.892212 1449.000000,586.069458 
z"/>
<path fill="#FFFFFF" opacity="1.000000" stroke="none" 
	d="
M1293.769287,493.571411 
	C1295.073730,492.790344 1296.161255,492.057800 1297.252808,492.051300 
	C1310.576172,491.972351 1323.900024,492.000031 1337.735596,492.000031 
	C1349.453125,538.840088 1361.175293,585.698364 1373.008057,632.998657 
	C1361.867798,632.998657 1350.914551,633.065125 1339.965332,632.886841 
	C1338.965698,632.870544 1337.332886,631.428894 1337.111206,630.406860 
	C1335.512329,623.033569 1334.201660,615.597839 1332.788208,608.121643 
	C1321.528687,608.121643 1310.562622,608.121643 1299.279541,608.121643 
	C1297.851685,615.361694 1296.549194,622.623291 1294.881348,629.799988 
	C1294.590820,631.049988 1292.779297,632.834106 1291.636230,632.859985 
	C1281.167969,633.096619 1270.692139,632.999207 1259.548584,632.999207 
	C1270.964844,586.320557 1282.259399,540.138916 1293.769287,493.571411 
M1319.037231,545.253540 
	C1318.221802,540.476807 1317.406494,535.700073 1316.591064,530.923401 
	C1316.180420,530.937622 1315.769775,530.951904 1315.359009,530.966125 
	C1311.701538,548.576416 1308.043945,566.186707 1304.405640,583.704285 
	C1312.115234,583.704285 1319.520264,583.704285 1327.306519,583.704285 
	C1324.654541,570.896545 1322.076904,558.447998 1319.037231,545.253540 
z"/>
<path fill="#FFFFFF" opacity="1.000000" stroke="none" 
	d="
M1878.000000,492.000000 
	C1894.824097,492.000000 1911.149902,491.879547 1927.471313,492.086365 
	C1931.453003,492.136810 1935.462036,493.074921 1939.385376,493.937683 
	C1944.548706,495.073181 1946.920288,498.584534 1947.009033,503.810822 
	C1947.318726,522.049255 1947.766724,540.286072 1947.939819,558.525635 
	C1947.992798,564.100464 1947.442505,569.691650 1946.959961,575.257324 
	C1946.595825,579.457825 1941.499512,583.758606 1936.625488,583.970520 
	C1926.721558,584.401062 1916.812256,584.733887 1906.901978,584.974426 
	C1901.105469,585.115112 1895.302734,585.000000 1889.115479,585.000000 
	C1889.115479,601.014343 1889.115479,616.750793 1889.115479,632.741333 
	C1877.659668,632.741333 1866.591675,632.741333 1855.260986,632.741333 
	C1855.260986,586.009460 1855.260986,539.289429 1855.260986,492.000000 
	C1862.640259,492.000000 1870.070190,492.000000 1878.000000,492.000000 
M1909.929565,517.018494 
	C1903.015625,517.018494 1896.101807,517.018494 1889.000000,517.018494 
	C1889.000000,524.550598 1889.000000,531.512878 1889.000000,538.475159 
	C1889.000000,545.562195 1889.000000,552.649231 1889.000000,560.000000 
	C1895.141113,560.000000 1900.765137,560.005737 1906.389038,559.998291 
	C1911.830322,559.991089 1912.961304,558.922852 1912.986938,553.437012 
	C1913.033447,543.462891 1913.123657,533.485535 1912.900024,523.516174 
	C1912.852905,521.419861 1911.530518,519.352173 1909.929565,517.018494 
z"/>
<path fill="#FFFFFF" opacity="1.000000" stroke="none" 
	d="
M931.000000,610.999939 
	C931.000000,571.196350 931.000000,531.892761 931.000000,492.294739 
	C957.935608,492.294739 984.670044,492.294739 1011.702759,492.294739 
	C1011.702759,500.262390 1011.702759,508.334625 1011.702759,516.807251 
	C996.732910,516.807251 981.659241,516.807251 966.294556,516.807251 
	C966.294556,527.935608 966.294556,538.673706 966.294556,549.812012 
	C978.937317,549.812012 991.678955,549.812012 1004.708130,549.812012 
	C1004.708130,557.939819 1004.708130,565.678894 1004.708130,573.818848 
	C992.055054,573.818848 979.314087,573.818848 966.288452,573.818848 
	C966.288452,585.615051 966.288452,597.019409 966.288452,608.823120 
	C981.950195,608.823120 997.690186,608.823120 1013.713318,608.823120 
	C1013.713318,616.950562 1013.713318,624.689514 1013.713318,632.715698 
	C986.376709,632.715698 958.975891,632.715698 931.000000,632.715698 
	C931.000000,625.696838 931.000000,618.598389 931.000000,610.999939 
z"/>
<path fill="#FFFFFF" opacity="1.000000" stroke="none" 
	d="
M875.985901,633.000000 
	C868.180359,633.000000 860.871704,633.000000 853.171753,633.000000 
	C853.171753,594.373596 853.171753,555.972290 853.171753,517.173279 
	C843.716614,517.173279 834.639343,517.173279 825.283813,517.173279 
	C825.283813,508.709747 825.283813,500.637634 825.283813,492.281158 
	C854.963562,492.281158 884.698120,492.281158 914.716797,492.281158 
	C914.716797,500.291626 914.716797,508.363800 914.716797,516.838013 
	C906.038940,516.838013 897.294373,516.838013 888.163452,516.838013 
	C888.163452,555.634827 888.163452,594.036133 888.163452,633.000000 
	C884.024658,633.000000 880.253723,633.000000 875.985901,633.000000 
z"/>
<path fill="#ffffff" opacity="1.000000" stroke="none" 
	d="
M216.650085,226.028458 
	C217.125565,229.555695 215.617691,231.501251 211.300018,230.969925 
	C212.704712,229.362137 214.523651,227.766571 216.650085,226.028458 
z"/>
<path fill="#ffffff" opacity="1.000000" stroke="none" 
	d="
M60.650101,381.028412 
	C61.125572,384.555634 59.617645,386.501190 55.300034,385.969971 
	C56.704720,384.362091 58.523666,382.766510 60.650101,381.028412 
z"/>
<path fill="#ffffff" opacity="1.000000" stroke="none" 
	d="
M365.900085,81.624573 
	C364.459351,81.994614 363.085327,81.988594 361.298523,81.970123 
	C362.170715,80.559013 363.455658,79.160370 365.500336,76.934784 
	C365.741638,79.166573 365.854218,80.207542 365.900085,81.624573 
z"/>
<path fill="#ffffff" opacity="1.000000" stroke="none" 
	d="
M783.283569,493.008942 
	C783.032288,492.905365 783.022034,492.698578 783.003967,492.180359 
	C783.172241,492.214539 783.348389,492.560150 783.283569,493.008942 
z"/>
<path fill="#ffffff" opacity="1.000000" stroke="none" 
	d="
M365.268707,440.851562 
	C365.111847,440.577484 365.266174,440.368317 365.658752,440.114624 
	C365.985413,440.401855 365.879700,440.683990 365.268707,440.851562 
z"/>
<path fill="none" opacity="1.000000" stroke="none" 
	d="
M648.885803,560.957703 
	C646.365906,563.363403 643.796631,565.719666 641.333313,568.181946 
	C595.016113,614.478455 548.743103,660.819153 502.381622,707.071289 
	C491.090302,718.335999 479.522278,729.323486 468.061066,740.417358 
	C467.409760,741.047729 466.572784,741.486206 465.311890,742.372986 
	C465.311890,673.668457 465.311890,605.640747 465.311890,537.306519 
	C533.776672,537.306519 602.185303,537.306519 672.372925,537.306519 
	C666.800720,544.427124 660.626221,549.522705 654.786621,555.727539 
	C652.523499,557.766724 650.704651,559.362244 648.885803,560.957703 
z"/>
<path fill="#ffffff" opacity="1.000000" stroke="none" 
	d="
M649.299927,560.969971 
	C650.704651,559.362244 652.523499,557.766724 654.649780,556.028809 
	C655.125549,559.556396 653.616638,561.500793 649.299927,560.969971 
z"/>
<path fill="none" opacity="1.000000" stroke="none" 
	d="
M1455.999756,144.000000 
	C1461.995728,144.000000 1467.491821,143.976181 1472.987671,144.005798 
	C1480.470581,144.046097 1483.998535,147.621552 1483.999268,155.115921 
	C1484.001221,174.768234 1483.815308,194.422974 1484.073242,214.071899 
	C1484.214966,224.874817 1481.718628,227.834534 1469.773071,227.926712 
	C1440.629517,228.151566 1411.483032,228.000000 1382.337646,228.000000 
	C1365.717773,228.000000 1349.098022,228.000000 1332.239990,228.000000 
	C1332.239990,199.963486 1332.239990,172.239258 1332.239990,144.000000 
	C1373.351318,144.000000 1414.425659,144.000000 1455.999756,144.000000 
z"/>
<path fill="none" opacity="1.000000" stroke="none" 
	d="
M1484.000000,328.000000 
	C1484.000000,340.659027 1484.002197,352.818085 1483.999268,364.977112 
	C1483.997437,372.511230 1479.491211,376.989777 1471.817261,376.993774 
	C1442.335815,377.009155 1412.854248,377.000000 1383.372803,377.000000 
	C1366.415283,377.000000 1349.457764,377.000000 1332.250854,377.000000 
	C1332.250854,348.983337 1332.250854,321.257019 1332.250854,293.000000 
	C1333.858276,293.000000 1335.461548,293.000000 1337.064697,293.000000 
	C1382.036499,293.000000 1427.008667,293.086639 1471.979858,292.923187 
	C1480.458618,292.892334 1484.735596,297.496094 1484.130859,305.024719 
	C1483.532593,312.471954 1484.000000,320.004730 1484.000000,328.000000 
z"/>
<path fill="none" opacity="1.000000" stroke="none" 
	d="
M982.287964,249.286072 
	C988.649048,233.148956 994.772522,217.330902 1000.864319,201.500656 
	C1003.277283,195.230408 1005.610291,188.929413 1008.002197,182.651016 
	C1008.487305,181.377701 1009.073669,180.143005 1010.083496,177.799576 
	C1025.007080,216.351410 1039.518311,253.837830 1054.175293,291.701141 
	C1024.641602,291.701141 995.455322,291.701141 965.775452,291.701141 
	C971.238464,277.558105 976.638062,263.579193 982.287964,249.286072 
z"/>
<path fill="none" opacity="1.000000" stroke="none" 
	d="
M1067.000000,544.990967 
	C1067.000000,535.532532 1067.000000,526.572998 1067.000000,517.009155 
	C1073.571899,517.009155 1080.000977,516.765320 1086.381592,517.211792 
	C1087.680786,517.302734 1089.795654,519.962341 1089.839111,521.486267 
	C1090.142700,532.115723 1089.966919,542.758118 1090.016724,553.395996 
	C1090.035156,557.332703 1087.267090,557.872131 1084.421997,557.952576 
	C1078.800415,558.111633 1073.171021,557.999512 1067.000000,557.999512 
	C1067.000000,553.680847 1067.000000,549.585327 1067.000000,544.990967 
z"/>
<path fill="none" opacity="1.000000" stroke="none" 
	d="
M1541.000000,543.993652 
	C1541.000000,534.868103 1541.000000,526.240906 1541.000000,517.009155 
	C1547.571655,517.009155 1554.000732,516.765381 1560.381470,517.211853 
	C1561.680664,517.302734 1563.795776,519.962280 1563.839355,521.486145 
	C1564.142822,532.115723 1563.966919,542.758179 1564.016724,553.396179 
	C1564.035156,557.333069 1561.266479,557.872009 1558.421875,557.952515 
	C1552.799805,558.111755 1547.170044,557.999512 1541.000000,557.999512 
	C1541.000000,553.346863 1541.000000,548.919434 1541.000000,543.993652 
z"/>
<path fill="none" opacity="1.000000" stroke="none" 
	d="
M1183.000000,522.111206 
	C1183.000000,520.172424 1183.000000,518.722107 1183.000000,517.000000 
	C1189.118164,517.000000 1194.759888,517.199890 1200.379761,516.934814 
	C1204.644165,516.733582 1205.930054,519.088135 1205.965088,522.583557 
	C1206.063721,532.412842 1205.980957,542.243896 1206.009277,552.074158 
	C1206.020874,556.077209 1204.110962,558.031128 1200.096313,558.007874 
	C1194.610962,557.976196 1189.125366,557.999939 1183.000000,557.999939 
	C1183.000000,546.106018 1183.000000,534.352905 1183.000000,522.111206 
z"/>
<path fill="none" opacity="1.000000" stroke="none" 
	d="
M1678.851807,605.373291 
	C1676.964966,606.871155 1675.287964,608.645691 1673.434204,608.855164 
	C1669.320435,609.320007 1665.117065,608.947754 1660.951904,609.016785 
	C1657.714600,609.070435 1655.986328,607.748291 1655.988892,604.349121 
	C1656.009033,576.851562 1656.010498,549.354065 1655.986206,521.856506 
	C1655.983398,518.589294 1657.417725,516.953186 1660.746094,516.989807 
	C1664.745239,517.033752 1668.765625,517.253357 1672.739868,516.936035 
	C1677.746216,516.536438 1679.022095,519.220154 1679.007324,523.447266 
	C1678.980835,531.113159 1679.001709,538.779236 1678.999634,546.445190 
	C1678.994385,565.943420 1678.987549,585.441589 1678.851807,605.373291 
z"/>
<path fill="none" opacity="1.000000" stroke="none" 
	d="
M1319.268311,545.626526 
	C1322.076904,558.447998 1324.654541,570.896545 1327.306519,583.704285 
	C1319.520264,583.704285 1312.115234,583.704285 1304.405640,583.704285 
	C1308.043945,566.186707 1311.701538,548.576416 1315.359009,530.966125 
	C1315.769775,530.951904 1316.180420,530.937622 1316.591064,530.923401 
	C1317.406494,535.700073 1318.221802,540.476807 1319.268311,545.626526 
z"/>
<path fill="none" opacity="1.000000" stroke="none" 
	d="
M1910.362671,517.144897 
	C1911.530518,519.352173 1912.852905,521.419861 1912.900024,523.516174 
	C1913.123657,533.485535 1913.033447,543.462891 1912.986938,553.437012 
	C1912.961304,558.922852 1911.830322,559.991089 1906.389038,559.998291 
	C1900.765137,560.005737 1895.141113,560.000000 1889.000000,560.000000 
	C1889.000000,552.649231 1889.000000,545.562195 1889.000000,538.475159 
	C1889.000000,531.512878 1889.000000,524.550598 1889.000000,517.018494 
	C1896.101807,517.018494 1903.015625,517.018494 1910.362671,517.144897 
z"/>
</svg>